<svg xmlns="http://www.w3.org/2000/svg" width="178.44" height="35" viewBox="0 0 178.44 35"><rect class="svg__rect" x="0" y="0" width="51.47" height="35" fill="#EA4560"/><rect class="svg__rect" x="49.47" y="0" width="128.97" height="35" fill="#B3374B"/><path class="svg__text" d="M13.97 18.51L13.97 18.51L13.97 17.03Q13.97 15.19 14.65 14.27Q15.34 13.35 16.75 13.35L16.75 13.35Q18.15 13.35 18.84 14.25Q19.53 15.14 19.55 16.93L19.55 16.93L19.55 18.41Q19.55 20.25 18.86 21.18Q18.17 22.12 16.77 22.12L16.77 22.12Q15.38 22.12 14.68 21.21Q13.98 20.29 13.97 18.51ZM15.38 16.68L15.38 18.61Q15.38 19.81 15.72 20.39Q16.05 20.98 16.77 20.98L16.77 20.98Q17.45 20.98 17.78 20.44Q18.11 19.90 18.13 18.74L18.13 18.74L18.13 16.81Q18.13 15.61 17.80 15.05Q17.47 14.49 16.75 14.49L16.75 14.49Q16.06 14.49 15.73 15.02Q15.40 15.55 15.38 16.68L15.38 16.68ZM29.72 15.53L29.72 15.53L29.72 15.11Q29.72 14.34 30.21 13.84Q30.71 13.35 31.52 13.35L31.52 13.35Q32.34 13.35 32.84 13.84Q33.33 14.34 33.33 15.14L33.33 15.14L33.33 15.56Q33.33 16.33 32.84 16.82Q32.34 17.31 31.53 17.31L31.53 17.31Q30.74 17.31 30.23 16.83Q29.72 16.35 29.72 15.53ZM30.71 15.13L30.71 15.56Q30.71 15.96 30.94 16.21Q31.16 16.46 31.53 16.46L31.53 16.46Q31.89 16.46 32.12 16.21Q32.34 15.96 32.34 15.54L32.34 15.54L32.34 15.11Q32.34 14.71 32.11 14.45Q31.89 14.20 31.52 14.20Q31.15 14.20 30.93 14.46Q30.71 14.71 30.71 15.13L30.71 15.13ZM31.82 21.36L31.09 20.94L35.26 14.27L35.99 14.69L31.82 21.36ZM33.82 20.34L33.82 20.34L33.82 19.91Q33.82 19.12 34.33 18.64Q34.84 18.15 35.63 18.15L35.63 18.15Q36.42 18.15 36.93 18.64Q37.44 19.12 37.44 19.95L37.44 19.95L37.44 20.37Q37.44 21.13 36.95 21.62Q36.46 22.12 35.64 22.12Q34.82 22.12 34.32 21.63Q33.82 21.14 33.82 20.34ZM34.81 19.93L34.81 20.37Q34.81 20.76 35.04 21.02Q35.28 21.27 35.64 21.27L35.64 21.27Q36.01 21.27 36.23 21.03Q36.44 20.79 36.44 20.35L36.44 20.35L36.44 19.91Q36.44 19.50 36.21 19.25Q35.98 19.01 35.63 19.01L35.63 19.01Q35.26 19.01 35.04 19.25Q34.81 19.50 34.81 19.93L34.81 19.93Z" fill="#FFFFFF"/><path class="svg__text" d="M63.23 17.80L63.23 17.80Q63.23 16.54 63.83 15.54Q64.43 14.55 65.48 13.99Q66.53 13.43 67.85 13.43L67.85 13.43Q69.00 13.43 69.92 13.84Q70.85 14.25 71.46 15.02L71.46 15.02L69.95 16.39Q69.14 15.40 67.97 15.40L67.97 15.40Q67.28 15.40 66.75 15.70Q66.22 16 65.92 16.54Q65.63 17.09 65.63 17.80L65.63 17.80Q65.63 18.51 65.92 19.05Q66.22 19.60 66.75 19.90Q67.28 20.20 67.97 20.20L67.97 20.20Q69.14 20.20 69.95 19.22L69.95 19.22L71.46 20.58Q70.85 21.35 69.93 21.76Q69.00 22.17 67.85 22.17L67.85 22.17Q66.53 22.17 65.48 21.61Q64.43 21.05 63.83 20.05Q63.23 19.06 63.23 17.80ZM82.38 22L76.00 22L76.00 13.60L78.38 13.60L78.38 20.11L82.38 20.11L82.38 22ZM93.55 22L86.80 22L86.80 13.60L93.39 13.60L93.39 15.44L89.16 15.44L89.16 16.85L92.89 16.85L92.89 18.63L89.16 18.63L89.16 20.17L93.55 20.17L93.55 22ZM99.77 22L97.34 22L101.05 13.60L103.40 13.60L107.11 22L104.64 22L103.98 20.37L100.43 20.37L99.77 22ZM102.21 15.93L101.12 18.61L103.28 18.61L102.21 15.93ZM113.60 22L111.27 22L111.27 13.60L113.22 13.60L116.93 18.07L116.93 13.60L119.26 13.60L119.26 22L117.31 22L113.60 17.52L113.60 22ZM126.75 22L124.42 22L124.42 13.60L126.38 13.60L130.09 18.07L130.09 13.60L132.41 13.60L132.41 22L130.46 22L126.75 17.52L126.75 22ZM139.95 22L137.57 22L137.57 13.60L139.95 13.60L139.95 22ZM147.46 22L145.13 22L145.13 13.60L147.08 13.60L150.79 18.07L150.79 13.60L153.12 13.60L153.12 22L151.17 22L147.46 17.52L147.46 22ZM157.85 17.80L157.85 17.80Q157.85 16.54 158.45 15.54Q159.05 14.55 160.12 13.99Q161.19 13.43 162.53 13.43L162.53 13.43Q163.71 13.43 164.64 13.83Q165.58 14.22 166.20 14.97L166.20 14.97L164.69 16.33Q163.85 15.40 162.67 15.40L162.67 15.40Q162.66 15.40 162.65 15.40L162.65 15.40Q161.57 15.40 160.91 16.06Q160.25 16.71 160.25 17.80L160.25 17.80Q160.25 18.50 160.55 19.04Q160.85 19.59 161.39 19.89Q161.93 20.20 162.63 20.20L162.63 20.20Q163.31 20.20 163.91 19.93L163.91 19.93L163.91 17.62L166.01 17.62L166.01 21.10Q165.29 21.61 164.35 21.89Q163.42 22.17 162.48 22.17L162.48 22.17Q161.16 22.17 160.11 21.61Q159.05 21.05 158.45 20.05Q157.85 19.06 157.85 17.80Z" fill="#FFFFFF" x="62.47"/></svg>